<svg id="Calque_1" data-name="Calque 1" xmlns="http://www.w3.org/2000/svg" viewBox="0 0 1080 1080"><defs><style>.cls-1{fill:#f8c31d;}</style></defs><path class="cls-1" d="M537.11,215.07c145.44,0,269.93,95.08,321.3,229.84,7.28,19.11,24.73,31.65,44.16,31.65h51.56c32.51,0,55.55-33.82,45.21-66.51C934.54,205.15,752.09,57.51,537.11,57.51S139.67,205.15,74.87,410.05c-10.34,32.69,12.7,66.51,45.21,66.51h51.56c19.44,0,36.89-12.54,44.17-31.65,51.36-134.76,175.85-229.84,321.3-229.84"/><path class="cls-1" d="M787,678.87c-34.53,0-64.86-18.76-82.27-47.08-10.88-17.71-29.64-28.35-49.73-28.35H434.85c-20.09,0-38.85,10.64-49.74,28.35-17.4,28.32-47.74,47.08-82.27,47.08S238,660.11,220.57,631.79c-10.88-17.71-29.64-28.35-49.73-28.35H137.43c-41.95,0-71.26,44-56.4,85.09,70.53,195.19,250.46,334,461.34,334s390.82-138.77,461.34-334c14.86-41.12-14.44-85.09-56.39-85.09H919c-20.09,0-38.85,10.64-49.73,28.35-17.41,28.32-47.75,47.08-82.28,47.08"/></svg>